<?xml version="1.0" encoding="UTF-8" standalone="no"?>
<!-- Generator: Adobe Illustrator 16.0.0, SVG Export Plug-In . SVG Version: 6.00 Build 0)  -->

<svg
   version="1.1"
   id="Capa_1"
   x="0px"
   y="0px"
   width="381.085px"
   height="381.085px"
   viewBox="0 0 381.085 381.085"
   style="enable-background:new 0 0 381.085 381.085;"
   xml:space="preserve"
   sodipodi:docname="scissors.svg"
   inkscape:version="1.1.1 (3bf5ae0d25, 2021-09-20, custom)"
   xmlns:inkscape="http://www.inkscape.org/namespaces/inkscape"
   xmlns:sodipodi="http://sodipodi.sourceforge.net/DTD/sodipodi-0.dtd"
   xmlns="http://www.w3.org/2000/svg"
   xmlns:svg="http://www.w3.org/2000/svg"><defs
   id="defs45" /><sodipodi:namedview
   id="namedview43"
   pagecolor="#505050"
   bordercolor="#eeeeee"
   borderopacity="1"
   inkscape:pageshadow="0"
   inkscape:pageopacity="0"
   inkscape:pagecheckerboard="0"
   showgrid="false"
   inkscape:zoom="2.1360065"
   inkscape:cx="190.5425"
   inkscape:cy="190.30841"
   inkscape:window-width="1920"
   inkscape:window-height="975"
   inkscape:window-x="0"
   inkscape:window-y="22"
   inkscape:window-maximized="1"
   inkscape:current-layer="Capa_1" />
<g
   id="g10">
	<g
   id="g8">
		<path
   d="M117.017,228.17l62.572-25.619c-0.228-9.552-0.538-17.883-0.8-23.681c-7.281,6.137-13.119,10.825-16.272,12.938    c-11.782,7.87-42.137,18.929-57.445,24.265c-18.141-11.724-44.589-7.392-62.163,11.304c-19.221,20.435-20.879,49.908-3.795,67.084    c0.303,0.316,0.625,0.607,0.934,0.923c17.878,16.792,48.25,13.628,67.692-7.076C124.561,270.395,127.935,245.593,117.017,228.17z     M48.834,286.02l-0.63-0.619c-11.981-12.039-10.165-34.133,4.041-49.254c14.613-15.543,36.853-18.462,49.563-6.504l0.636,0.606    c11.992,12.027,10.159,34.12-4.046,49.254C83.79,295.045,61.557,297.977,48.834,286.02z"
   id="path2" />
		<path
   d="M204.321,356.28c13.884-20.867,12.845-47.188-2.476-62.577c-0.21-0.211-0.443-0.387-0.653-0.584    c-0.596-14.434-0.129-45.729,11.28-81.343C214.211,197.226,316.41,2.557,316.41,2.557L309.333,0L187.64,172.044    c0,0,4.771,79.504-2.814,111.733c-18.963-5.36-41.5,3.549-54.584,23.214c-13.884,20.866-12.839,47.175,2.476,62.565    c1.827,1.846,3.865,3.516,6.037,4.951C159.166,388.111,188.581,379.926,204.321,356.28z M200.771,181.462    c-3.036-3.047-3.013-7.987,0.023-11.023c3.06-3.036,7.987-3.036,11.035,0.023c3.036,3.048,3.024,7.987-0.023,11.023    C208.747,184.539,203.807,184.527,200.771,181.462z M145.848,363.835c-1.46-0.958-2.826-2.078-4.04-3.315    c-11.041-11.094-11.409-30.606-0.888-46.429c11.812-17.749,33.256-24.335,47.794-14.655c1.46,0.97,2.82,2.09,4.052,3.305    c11.029,11.094,11.415,30.617,0.887,46.429C181.825,366.941,160.386,373.504,145.848,363.835z"
   id="path4" />
		<path
   d="M353.765,29.87l-5.372-5.395L279.23,89.143c-12.611,24.621-25.701,50.48-36.27,72.019L353.765,29.87z"
   id="path6" />
	</g>
</g>
<g
   id="g12">
</g>
<g
   id="g14">
</g>
<g
   id="g16">
</g>
<g
   id="g18">
</g>
<g
   id="g20">
</g>
<g
   id="g22">
</g>
<g
   id="g24">
</g>
<g
   id="g26">
</g>
<g
   id="g28">
</g>
<g
   id="g30">
</g>
<g
   id="g32">
</g>
<g
   id="g34">
</g>
<g
   id="g36">
</g>
<g
   id="g38">
</g>
<g
   id="g40">
</g>
<path
   style="fill:#ffffff;stroke:#000000;stroke-width:0.313063"
   d="m 60.78707,305.28526 c -4.284311,-0.81977 -7.631033,-1.92148 -11.161752,-3.67432 -20.651758,-10.25266 -27.914612,-35.66144 -16.818325,-58.8382 2.978586,-6.22136 5.804083,-10.27333 10.775469,-15.4528 5.013048,-5.22289 9.961813,-8.92335 15.874287,-11.87009 8.467332,-4.22007 15.575773,-5.74624 24.919101,-5.35007 6.929005,0.29379 11.076226,1.30982 16.76492,4.10726 2.06953,1.0177 4.01355,1.85036 4.32005,1.85036 0.82762,0 18.217,-6.37878 28.66799,-10.516 5.02105,-1.98768 13.13198,-5.56701 18.02429,-7.95407 9.08,-4.43032 12.86743,-6.93021 22.23776,-14.67799 l 3.97939,-3.29033 0.31136,4.05725 c 0.17125,2.23149 0.38192,7.3593 0.46816,11.39513 l 0.1568,7.33787 -31.13286,12.72697 c -17.12308,6.99984 -31.18911,12.77789 -31.25785,12.84012 -0.0687,0.0622 0.7069,1.77739 1.72365,3.81148 2.92102,5.84375 3.84736,9.72667 4.1213,17.27509 0.17985,4.95569 0.0487,7.56049 -0.5378,10.67974 -2.62162,13.94312 -11.88448,28.02789 -23.891284,36.32818 -4.926788,3.40589 -12.435492,6.882 -17.883837,8.27922 -5.751265,1.47491 -14.632434,1.89735 -19.660819,0.9352 z m 15.934019,-12.77045 c 9.590874,-2.13594 19.604884,-8.98741 25.776251,-17.6358 2.78835,-3.90752 5.6429,-9.96817 6.86723,-14.58017 1.2957,-4.88086 1.42032,-13.14446 0.26478,-17.55613 -2.48533,-9.48848 -8.817,-16.13008 -18.571573,-19.48066 -2.066997,-0.70999 -3.867741,-0.87862 -9.129185,-0.8549 -5.875858,0.0265 -6.966192,0.16541 -10.533677,1.34203 -7.220084,2.38133 -11.824203,5.16143 -17.497955,10.56576 -6.06493,5.77694 -9.856425,11.93949 -12.303033,19.99688 -1.083157,3.56714 -1.251438,4.95497 -1.265242,10.43457 -0.01435,5.6983 0.110109,6.68368 1.264887,10.01409 2.285174,6.59048 5.603967,10.98886 10.736765,14.22939 7.11406,4.49138 14.959884,5.62526 24.390752,3.52494 z"
   id="path936" /><path
   style="fill:#ffffff;stroke:#000000;stroke-width:0.313063"
   d=""
   id="path975" /><path
   style="fill:#ffffff;stroke:#000000;stroke-width:0.313063"
   d="m 153.55759,380.14715 c -16.52431,-3.12245 -28.42804,-15.43889 -32.12431,-33.23809 -0.82793,-3.98686 -0.68685,-14.18783 0.25749,-18.61763 2.37025,-11.11865 7.53443,-20.99282 15.19034,-29.04471 12.16568,-12.79491 29.13538,-18.92366 44.34137,-16.01428 2.00026,0.38271 3.68198,0.64606 3.73716,0.5852 0.0552,-0.0608 0.43564,-1.79602 0.84548,-3.85594 0.99469,-4.99946 2.00309,-13.70292 2.71211,-23.40817 0.77452,-10.60166 0.76753,-55.29929 -0.0112,-71.69779 l -0.60356,-12.7092 60.75566,-85.893135 60.75565,-85.89312617 2.83008,0.93459127 c 1.55655,0.5140251 3.01457,1.1019983 3.24006,1.3066071 0.22548,0.2046087 -3.91095,8.6566048 -9.19207,18.7822128 -48.84157,93.64498 -83.92194,163.77379 -91.62225,183.1611 -3.4122,8.59102 -8.25029,27.44094 -10.52498,41.0069 -2.30186,13.72804 -3.87223,34.98449 -3.23384,43.77328 l 0.30606,4.21347 2.30009,2.52799 c 4.56815,5.02076 8.46736,13.50868 9.69956,21.11426 2.18781,13.50405 -1.98155,29.35356 -10.87815,41.35239 -12.00091,16.18563 -31.58553,24.8633 -48.78076,21.61407 z m 15.56187,-12.68787 c 19.18138,-4.99611 33.67499,-25.27883 32.26438,-45.15157 -1.28553,-18.11067 -15.65143,-29.92616 -32.96888,-27.11584 -4.74914,0.7707 -10.69806,3.18298 -15.08344,6.11631 -8.73151,5.84042 -15.30899,14.88896 -18.58632,25.56896 -1.13539,3.69995 -1.26418,4.84529 -1.27865,11.3709 -0.015,6.76534 0.0726,7.50975 1.29388,10.99735 1.78496,5.0972 3.95385,8.49843 7.58578,11.89592 4.16768,3.89866 8.90368,6.22541 14.44269,7.09558 3.03082,0.47614 8.95035,0.10283 12.33056,-0.77761 z m 41.35665,-184.76966 c 2.45984,-1.65769 3.70864,-3.85112 3.70864,-6.51399 0,-4.22535 -2.54619,-7.3532 -6.59679,-8.10379 -5.25183,-0.97318 -10.13483,3.96733 -9.13743,9.24504 0.41273,2.18391 1.91134,4.42829 3.67473,5.50345 2.19983,1.34125 6.26093,1.27769 8.35085,-0.13071 z"
   id="path1014" /><path
   style="fill:#ffffff;stroke:#000000;stroke-width:0.313063"
   d="m 245.09418,157.74765 c 0.006,-0.24461 7.74811,-15.76531 17.205,-34.49043 l 17.19436,-34.045682 34.34003,-32.0824 c 18.88701,-17.645319 34.48477,-32.082397 34.66168,-32.082397 0.17692,0 1.33934,1.033208 2.58316,2.296018 1.51591,1.539053 2.13662,2.498066 1.88273,2.908866 -0.3205,0.518576 -106.26356,126.212085 -107.46235,127.496025 -0.26227,0.2809 -0.41134,0.2809 -0.40461,0 z"
   id="path1053" /></svg>
